<svg width="24" height="24" viewBox="0 0 24 24" fill="none" xmlns="http://www.w3.org/2000/svg">
<path d="M16.3806 19.2484C14.0343 19.2484 12.0914 17.5342 12.0181 15.3354L11.7248 7.69565C11.6881 6.46584 12.128 5.31056 12.9712 4.41615C13.8877 3.52174 15.0975 3 16.3806 3C17.6637 3 18.8735 3.52174 19.7533 4.45342C20.5965 5.34783 21.0364 6.50311 20.9997 7.73292L20.7064 15.3727C20.6331 17.5342 18.7268 19.2484 16.3806 19.2484ZM16.3806 4.49068C15.5007 4.49068 14.6576 4.82609 14.071 5.45963C13.4845 6.0559 13.1912 6.83851 13.2278 7.65839L13.4845 15.2981C13.5211 16.677 14.8409 17.7578 16.3806 17.7578C17.9203 17.7578 19.2034 16.6398 19.2767 15.2981L19.57 7.65839C19.6067 6.83851 19.3134 6.0559 18.7268 5.45963C18.1036 4.82609 17.2604 4.49068 16.3806 4.49068Z" fill="#8E87AF"/>
<path d="M19.423 11.3478L16.4536 7.73289L13.3375 11.2733H11.8711L16.0137 6.54034C16.1236 6.42854 16.3069 6.354 16.4902 6.354C16.6735 6.354 16.8202 6.42854 16.9302 6.57761L20.8894 11.3851L19.423 11.3478Z" fill="#8E87AF"/>
<path d="M7.25289 20.9999C5.08996 20.9999 3.33028 19.3975 3.25696 17.385L3.00034 10.4906C2.96368 9.37261 3.36694 8.29186 4.1368 7.47199C4.94332 6.61484 6.04311 6.13037 7.25289 6.13037C8.46267 6.13037 9.56246 6.61484 10.369 7.47199C11.1388 8.29186 11.5421 9.37261 11.5054 10.4906L11.2488 17.385C11.2122 19.3975 9.45248 20.9999 7.25289 20.9999ZM7.25289 7.62105C6.44637 7.62105 5.71318 7.91919 5.19994 8.4782C4.6867 9.0372 4.43008 9.70801 4.46674 10.4534L4.72336 17.3478C4.76002 18.5403 5.89647 19.5093 7.25289 19.5093C8.60931 19.5093 9.74576 18.5403 9.78242 17.3478L10.039 10.4534C10.0757 9.74528 9.81908 9.0372 9.30584 8.51546C8.79261 7.91919 8.05941 7.62105 7.25289 7.62105Z" fill="#8E87AF"/>
<path d="M4.57577 13.7702L3.10938 13.8075L6.70204 9.44723C6.81202 9.29817 6.99532 9.22363 7.14196 9.22363C7.32526 9.22363 7.4719 9.29817 7.61854 9.44723L11.3945 13.6584L9.92811 13.6957L7.17862 10.6398L4.57577 13.7702Z" fill="#8E87AF"/>
<path d="M16.3806 19.2484C14.0343 19.2484 12.0914 17.5342 12.0181 15.3354L11.7248 7.69565C11.6881 6.46584 12.128 5.31056 12.9712 4.41615C13.8877 3.52174 15.0975 3 16.3806 3C17.6637 3 18.8735 3.52174 19.7533 4.45342C20.5965 5.34783 21.0364 6.50311 20.9997 7.73292L20.7064 15.3727C20.6331 17.5342 18.7268 19.2484 16.3806 19.2484ZM16.3806 4.49068C15.5007 4.49068 14.6576 4.82609 14.071 5.45963C13.4845 6.0559 13.1912 6.83851 13.2278 7.65839L13.4845 15.2981C13.5211 16.677 14.8409 17.7578 16.3806 17.7578C17.9203 17.7578 19.2034 16.6398 19.2767 15.2981L19.57 7.65839C19.6067 6.83851 19.3134 6.0559 18.7268 5.45963C18.1036 4.82609 17.2604 4.49068 16.3806 4.49068Z" fill="#8E87AF"/>
<path d="M19.423 11.3478L16.4536 7.73289L13.3375 11.2733H11.8711L16.0137 6.54034C16.1236 6.42854 16.3069 6.354 16.4902 6.354C16.6735 6.354 16.8202 6.42854 16.9302 6.57761L20.8894 11.3851L19.423 11.3478Z" fill="#8E87AF"/>
<path d="M7.25289 20.9999C5.08996 20.9999 3.33028 19.3975 3.25696 17.385L3.00034 10.4906C2.96368 9.37261 3.36694 8.29186 4.1368 7.47199C4.94332 6.61484 6.04311 6.13037 7.25289 6.13037C8.46267 6.13037 9.56246 6.61484 10.369 7.47199C11.1388 8.29186 11.5421 9.37261 11.5054 10.4906L11.2488 17.385C11.2122 19.3975 9.45248 20.9999 7.25289 20.9999ZM7.25289 7.62105C6.44637 7.62105 5.71318 7.91919 5.19994 8.4782C4.6867 9.0372 4.43008 9.70801 4.46674 10.4534L4.72336 17.3478C4.76002 18.5403 5.89647 19.5093 7.25289 19.5093C8.60931 19.5093 9.74576 18.5403 9.78242 17.3478L10.039 10.4534C10.0757 9.74528 9.81908 9.0372 9.30584 8.51546C8.79261 7.91919 8.05941 7.62105 7.25289 7.62105Z" fill="#8E87AF"/>
<path d="M4.57577 13.7702L3.10938 13.8075L6.70204 9.44723C6.81202 9.29817 6.99532 9.22363 7.14196 9.22363C7.32526 9.22363 7.4719 9.29817 7.61854 9.44723L11.3945 13.6584L9.92811 13.6957L7.17862 10.6398L4.57577 13.7702Z" fill="#8E87AF"/>
</svg>
