<svg width="14" height="14" viewBox="0 0 14 14" fill="none" xmlns="http://www.w3.org/2000/svg">
<path d="M5.56385 0.85133C6.18484 -0.283777 7.81516 -0.283777 8.43615 0.85133C8.80525 1.52599 9.5942 1.85279 10.3323 1.63672C11.574 1.27319 12.7268 2.42599 12.3633 3.66775C12.1472 4.4058 12.474 5.19475 13.1487 5.56385C14.2838 6.18484 14.2838 7.81516 13.1487 8.43615C12.474 8.80525 12.1472 9.5942 12.3633 10.3323C12.7268 11.574 11.574 12.7268 10.3323 12.3633C9.5942 12.1472 8.80525 12.474 8.43615 13.1487C7.81516 14.2838 6.18484 14.2838 5.56385 13.1487C5.19475 12.474 4.4058 12.1472 3.66775 12.3633C2.42599 12.7268 1.27319 11.574 1.63672 10.3323C1.85279 9.5942 1.52599 8.80525 0.85133 8.43615C-0.283777 7.81516 -0.283777 6.18484 0.85133 5.56385C1.52599 5.19475 1.85279 4.4058 1.63672 3.66775C1.27319 2.42599 2.42599 1.27319 3.66775 1.63672C4.4058 1.85279 5.19475 1.52599 5.56385 0.85133Z" fill="#3772FF"/>
<path fill-rule="evenodd" clip-rule="evenodd" d="M9.73769 5.07809C9.89716 5.23756 9.89716 5.4961 9.73769 5.65556L6.47103 8.92223C6.31156 9.0817 6.05302 9.0817 5.89356 8.92223L4.26022 7.2889C4.10076 7.12943 4.10076 6.87089 4.26022 6.71143C4.41969 6.55196 4.67823 6.55196 4.83769 6.71143L6.18229 8.05603L9.16022 5.07809C9.31969 4.91863 9.57823 4.91863 9.73769 5.07809Z" fill="white"/>
</svg>
