<svg width="24" height="24" viewBox="0 0 24 24" fill="none" xmlns="http://www.w3.org/2000/svg">
<path d="M9.53802 1.45942C10.6026 -0.486475 13.3974 -0.486474 14.462 1.45942C15.0947 2.61599 16.4472 3.17621 17.7124 2.8058C19.8412 2.18261 21.8174 4.15885 21.1942 6.28757C20.8238 7.5528 21.384 8.90528 22.5406 9.53802C24.4865 10.6026 24.4865 13.3974 22.5406 14.462C21.384 15.0947 20.8238 16.4472 21.1942 17.7124C21.8174 19.8412 19.8412 21.8174 17.7124 21.1942C16.4472 20.8238 15.0947 21.384 14.462 22.5406C13.3974 24.4865 10.6026 24.4865 9.53802 22.5406C8.90528 21.384 7.5528 20.8238 6.28757 21.1942C4.15885 21.8174 2.18261 19.8412 2.8058 17.7124C3.17621 16.4472 2.61599 15.0947 1.45942 14.462C-0.486474 13.3974 -0.486475 10.6026 1.45942 9.53802C2.61599 8.90528 3.17621 7.5528 2.80581 6.28757C2.18261 4.15885 4.15885 2.18261 6.28757 2.80581C7.5528 3.17621 8.90528 2.61599 9.53802 1.45942Z" fill="#3772FF"/>
<path fill-rule="evenodd" clip-rule="evenodd" d="M16.6946 8.70503C16.968 8.97839 16.968 9.42161 16.6946 9.69497L11.0946 15.295C10.8212 15.5683 10.378 15.5683 10.1046 15.295L7.30463 12.495C7.03127 12.2216 7.03127 11.7784 7.30463 11.505C7.578 11.2317 8.02122 11.2317 8.29458 11.505L10.5996 13.8101L15.7046 8.70503C15.978 8.43166 16.4212 8.43166 16.6946 8.70503Z" fill="white"/>
</svg>
