<svg width="24" height="24" viewBox="0 0 24 24" fill="none" xmlns="http://www.w3.org/2000/svg">
<path d="M11.041 3.37957C10.8528 3.0069 10.3637 2.8951 10.0251 3.08144C9.64888 3.30504 9.53601 3.75224 9.72413 4.12492L11.4548 7.18082L12.3202 5.65287L11.041 3.37957Z" fill="#8E87AF"/>
<path d="M20.2208 19.5163L13.1852 7.18091L12.5456 8.33619C12.4327 8.55979 12.4327 8.85793 12.5456 9.08153L18.7535 20.0008C19.0545 20.5225 20.0327 20.5225 20.2208 19.5163C20.2208 19.5536 20.2208 19.5536 20.2208 19.5163Z" fill="#8E87AF"/>
<path d="M14.5024 20.8578H9.61133V17.2801C9.61133 16.3112 10.4014 15.5286 11.3796 15.5286H12.6965C13.6747 15.5286 14.4648 16.3112 14.4648 17.2801V20.8578H14.5024ZM10.8153 19.6279H13.2608V17.2429C13.2608 16.9447 12.9975 16.6838 12.6965 16.6838H11.3796C11.0787 16.6838 10.8153 16.9447 10.8153 17.2429V19.6279Z" fill="#8E87AF"/>
<path d="M12.3207 12.6963H11.3801C11.1544 12.6963 11.0039 12.5472 11.0039 12.3236C11.0039 12.1 11.1544 11.9509 11.3801 11.9509H12.3207C12.5465 11.9509 12.697 12.1 12.697 12.3236C12.697 12.5472 12.5465 12.6963 12.3207 12.6963Z" fill="#8E87AF"/>
<path d="M20.7475 21.0068H3.25248C2.83861 21.0068 2.5 20.6714 2.5 20.2615C2.5 19.8515 2.83861 19.5161 3.25248 19.5161H20.7475C21.1614 19.5161 21.5 19.8515 21.5 20.2615C21.5 20.6714 21.1614 21.0068 20.7475 21.0068Z" fill="#8E87AF"/>
<path d="M4.75824 20.597L3.44141 19.8516L12.8097 3.37957C12.9978 3.0069 13.4869 2.8951 13.8256 3.08144C14.2018 3.26777 14.3147 3.75224 14.1266 4.08765L4.75824 20.597Z" fill="#8E87AF"/>
<path d="M11.041 3.37957C10.8528 3.0069 10.3637 2.8951 10.0251 3.08144C9.64888 3.30504 9.53601 3.75224 9.72413 4.12492L11.4548 7.18082L12.3202 5.65287L11.041 3.37957Z" fill="#8E87AF"/>
<path d="M20.2208 19.5163L13.1852 7.18091L12.5456 8.33619C12.4327 8.55979 12.4327 8.85793 12.5456 9.08153L18.7535 20.0008C19.0545 20.5225 20.0327 20.5225 20.2208 19.5163C20.2208 19.5536 20.2208 19.5536 20.2208 19.5163Z" fill="#8E87AF"/>
<path d="M14.5024 20.8578H9.61133V17.2801C9.61133 16.3112 10.4014 15.5286 11.3796 15.5286H12.6965C13.6747 15.5286 14.4648 16.3112 14.4648 17.2801V20.8578H14.5024ZM10.8153 19.6279H13.2608V17.2429C13.2608 16.9447 12.9975 16.6838 12.6965 16.6838H11.3796C11.0787 16.6838 10.8153 16.9447 10.8153 17.2429V19.6279Z" fill="#8E87AF"/>
<path d="M12.3207 12.6963H11.3801C11.1544 12.6963 11.0039 12.5472 11.0039 12.3236C11.0039 12.1 11.1544 11.9509 11.3801 11.9509H12.3207C12.5465 11.9509 12.697 12.1 12.697 12.3236C12.697 12.5472 12.5465 12.6963 12.3207 12.6963Z" fill="#8E87AF"/>
<path d="M20.7475 21.0068H3.25248C2.83861 21.0068 2.5 20.6714 2.5 20.2615C2.5 19.8515 2.83861 19.5161 3.25248 19.5161H20.7475C21.1614 19.5161 21.5 19.8515 21.5 20.2615C21.5 20.6714 21.1614 21.0068 20.7475 21.0068Z" fill="#8E87AF"/>
<path d="M4.75824 20.597L3.44141 19.8516L12.8097 3.37957C12.9978 3.0069 13.4869 2.8951 13.8256 3.08144C14.2018 3.26777 14.3147 3.75224 14.1266 4.08765L4.75824 20.597Z" fill="#8E87AF"/>
</svg>
