<svg width="24" height="24" viewBox="0 0 24 24" fill="none" xmlns="http://www.w3.org/2000/svg">
<path d="M6.113 5.801C6.453 5.504 6.857 5.275 7.303 5.14L7.55 5.075L7.71 5.045L7.886 5.02L8.066 5.005L8.25 5H15.75C16.58 4.99993 17.3785 5.3174 17.9819 5.88731C18.5853 6.45722 18.9478 7.23637 18.995 8.065L19 8.25V15.75C19.0001 16.5801 18.6824 17.3788 18.1123 17.9822C17.5422 18.5856 16.7628 18.948 15.934 18.995L15.75 19H8.25C7.41986 19.0001 6.62117 18.6824 6.01777 18.1123C5.41437 17.5422 5.052 16.7628 5.005 15.934L5 15.751V8.251L5.003 8.102L5.017 7.912L5.043 7.721L5.079 7.535L5.138 7.312L5.218 7.076L5.305 6.874L5.387 6.712L5.481 6.549L5.627 6.332L5.721 6.209L5.856 6.053L5.964 5.941L6.113 5.801ZM12 8.001C11.8188 8.00101 11.6437 8.06664 11.5071 8.18577C11.3705 8.30489 11.2816 8.46945 11.257 8.649L11.25 8.751V11.25H8.75C8.56876 11.25 8.39366 11.3156 8.25707 11.4348C8.12048 11.5539 8.03165 11.7184 8.007 11.898L8 12C8 12.38 8.282 12.693 8.648 12.743L8.75 12.75H11.25V15.251C11.25 15.631 11.532 15.945 11.898 15.994L12 16.001C12.1812 16.001 12.3563 15.9354 12.4929 15.8162C12.6295 15.6971 12.7184 15.5326 12.743 15.353L12.75 15.251V12.75H15.25C15.4314 12.75 15.6066 12.6842 15.7432 12.5649C15.8798 12.4455 15.9686 12.2807 15.993 12.101L16 12.001C16 11.8198 15.9344 11.6447 15.8152 11.5081C15.6961 11.3715 15.5316 11.2826 15.352 11.258L15.25 11.251H12.75V8.751C12.75 8.56976 12.6844 8.39466 12.5652 8.25807C12.4461 8.12148 12.2816 8.03265 12.102 8.008L12 8.001Z" fill="#8E87AF"/>
</svg>
