<svg width="24" height="24" viewBox="0 0 24 24" fill="none" xmlns="http://www.w3.org/2000/svg">
<path d="M12.7713 3H11.2266V6.01339H12.7713V3Z" fill="#8E87AF"/>
<path d="M18.8735 20.9999C16.6337 20.9999 14.8573 19.1517 14.78 16.8615H9.21907C9.18045 19.1517 7.36541 20.9999 5.12557 20.9999C3.65809 20.9999 2.46094 19.7544 2.46094 18.2276V10.7142C2.49956 7.66061 4.85525 5.20972 7.79021 5.20972H16.2475C19.1439 5.20972 21.5382 7.66061 21.5382 10.7142V18.2276C21.4996 19.7544 20.341 20.9999 18.8735 20.9999ZM9.14183 15.2142H14.8573C15.6683 15.2142 16.3248 15.8972 16.3248 16.741C16.3248 18.1874 17.4447 19.3928 18.8735 19.3928C19.4914 19.3928 19.9935 18.8704 19.9935 18.2276V10.7142C19.9935 8.58472 18.3329 6.81686 16.2475 6.81686H7.79021C5.70484 6.81686 4.04427 8.54454 4.04427 10.7142V18.2276C4.04427 18.8704 4.5463 19.3928 5.16419 19.3928C6.55443 19.3928 7.71297 18.2276 7.71297 16.741C7.67435 15.8972 8.33086 15.2142 9.14183 15.2142Z" fill="#8E87AF"/>
<path d="M16.826 10.0714C16.826 10.5134 16.4784 10.875 16.0536 10.875C15.6288 10.875 15.2812 10.5134 15.2812 10.0714C15.2812 9.62943 15.6288 9.26782 16.0536 9.26782C16.4784 9.26782 16.826 9.62943 16.826 10.0714Z" fill="#8E87AF"/>
<path d="M18.2166 12.0401C18.2166 12.4821 17.869 12.8437 17.4442 12.8437C17.0194 12.8437 16.6719 12.4821 16.6719 12.0401C16.6719 11.5982 17.0194 11.2366 17.4442 11.2366C17.869 11.2366 18.2166 11.5982 18.2166 12.0401Z" fill="#8E87AF"/>
<path d="M14.4708 14.0491H13.3122C13.1964 14.0491 13.1191 13.9688 13.1191 13.8482V12.9643C13.1191 12.8438 13.1964 12.7634 13.3122 12.7634H14.4708C14.5866 12.7634 14.6639 12.8438 14.6639 12.9643V13.8482C14.6639 13.9688 14.5866 14.0491 14.4708 14.0491Z" fill="#8E87AF"/>
<path d="M10.879 14.0491H9.72043C9.60458 14.0491 9.52734 13.9688 9.52734 13.8482V12.9643C9.52734 12.8438 9.60458 12.7634 9.72043 12.7634H10.879C10.9948 12.7634 11.0721 12.8438 11.0721 12.9643V13.8482C11.0721 13.9688 10.9562 14.0491 10.879 14.0491Z" fill="#8E87AF"/>
<path d="M7.36531 12.8438C7.09499 12.8438 6.86328 12.6027 6.86328 12.3215V10.1117C6.86328 9.83043 7.09499 9.58936 7.36531 9.58936C7.63564 9.58936 7.86735 9.83043 7.86735 10.1117V12.3215C7.86735 12.6027 7.63564 12.8438 7.36531 12.8438Z" fill="#8E87AF"/>
<path d="M8.9093 11.1964V11.2366C8.9093 11.5178 8.67759 11.7589 8.40727 11.7589H6.28328C6.01296 11.7589 5.78125 11.5178 5.78125 11.2366V11.1964C5.78125 10.9151 6.01296 10.6741 6.28328 10.6741H8.40727C8.67759 10.6741 8.9093 10.9151 8.9093 11.1964Z" fill="#8E87AF"/>
</svg>
