<svg width="24" height="24" viewBox="0 0 24 24" fill="none" xmlns="http://www.w3.org/2000/svg">
<path d="M14.7123 13.7161H8.60352V15.1168H14.7123V13.7161Z" fill="#8E87AF"/>
<path d="M17.3653 17.0427C16.4811 18.5485 14.7128 19.5991 12.6229 19.5991H11.3771C9.28724 19.5991 7.51892 18.5485 6.63476 17.0427C5.71041 16.9726 4.90662 16.4824 4.54492 15.782C4.987 18.7236 7.88062 20.9999 11.3771 20.9999H12.6229C16.1194 20.9999 19.013 18.7236 19.4551 15.782C19.0934 16.4824 18.2896 16.9726 17.3653 17.0427Z" fill="#8E87AF"/>
<path d="M18.4897 3H10.9342C7.39752 3 4.50391 5.5214 4.50391 8.60311V13.9961C4.78523 13.3658 5.38807 12.8755 6.11147 12.7004V8.60311C6.11147 6.29183 8.28168 4.40078 10.9342 4.40078H17.9271V12.7004C18.6505 12.9105 19.2533 13.4008 19.5346 13.9961V3.91051C19.5346 3.42023 19.0524 3 18.4897 3Z" fill="#8E87AF"/>
<path d="M10.8945 17.498C10.8945 18.1284 11.4572 18.6187 12.1806 18.6187C12.904 18.6187 13.4666 18.1284 13.4666 17.498H10.8945Z" fill="#8E87AF"/>
<path d="M17.1638 17.7432C15.3151 17.7432 13.8281 16.4474 13.8281 14.8365C13.8281 13.2257 15.3151 11.9299 17.1638 11.9299C19.0125 11.9299 20.4995 13.2257 20.4995 14.8365C20.4995 16.4474 19.0125 17.7432 17.1638 17.7432ZM17.1638 13.3307C16.1993 13.3307 15.4357 13.9961 15.4357 14.8365C15.4357 15.677 16.1993 16.3424 17.1638 16.3424C18.1284 16.3424 18.892 15.677 18.892 14.8365C18.892 13.9961 18.1284 13.3307 17.1638 13.3307Z" fill="#8E87AF"/>
<path d="M6.8357 17.7432C4.987 17.7432 3.5 16.4474 3.5 14.8365C3.5 13.2257 4.987 11.9299 6.8357 11.9299C8.6844 11.9299 10.1714 13.2257 10.1714 14.8365C10.1714 16.4474 8.6844 17.7432 6.8357 17.7432ZM6.8357 13.3307C5.87116 13.3307 5.10756 13.9961 5.10756 14.8365C5.10756 15.677 5.87116 16.3424 6.8357 16.3424C7.80024 16.3424 8.56383 15.677 8.56383 14.8365C8.56383 13.9961 7.80024 13.3307 6.8357 13.3307Z" fill="#8E87AF"/>
</svg>
