<svg width="24" height="24" viewBox="0 0 24 24" fill="none" xmlns="http://www.w3.org/2000/svg">
<path d="M14.5169 4.39917H9.49876C9.09876 4.39917 8.77148 4.08276 8.77148 3.69604C8.77148 3.30933 9.09876 2.99292 9.49876 2.99292H14.5533C14.9533 2.99292 15.2806 3.30933 15.2806 3.69604C15.2442 4.08276 14.9169 4.39917 14.5169 4.39917Z" fill="#8E87AF"/>
<path d="M11.4616 20.9929C7.49793 20.782 4.11611 18.0046 3.20702 14.2781C2.73429 12.239 2.98884 10.1296 3.97065 8.33667C4.15247 7.98511 4.6252 7.84448 4.98884 8.05542C5.31611 8.26636 5.4252 8.65308 5.24338 8.96948C4.44338 10.5164 4.2252 12.3093 4.66156 14.0671C5.4252 17.1257 8.26156 19.3757 11.5343 19.5867C15.8979 19.8328 19.5343 16.4578 19.5343 12.3093C19.5343 8.30151 16.1525 4.99683 11.9707 4.99683C10.1161 4.99683 8.29793 5.6648 6.91611 6.89526C6.6252 7.14136 6.2252 7.14136 5.93429 6.89526C5.60702 6.61401 5.60702 6.12183 5.93429 5.87573C7.60702 4.39917 9.75247 3.59058 12.007 3.59058C16.9888 3.59058 21.0252 7.49292 21.0252 12.3093C20.9888 17.2664 16.6616 21.2742 11.4616 20.9929Z" fill="#8E87AF"/>
<path d="M7.89774 17.0555C7.67956 17.0555 7.49774 16.9852 7.31592 16.8094C7.09774 16.5985 7.02501 16.3172 7.1341 16.036L9.09774 10.0243C9.20683 9.70785 9.46138 9.46176 9.78865 9.35629L15.8614 7.56332C16.1523 7.49301 16.4432 7.56332 16.6614 7.7391C16.8796 7.95004 16.9523 8.23129 16.8796 8.51254L15.0614 14.4539C14.9523 14.7704 14.6977 15.0516 14.3705 15.1219L8.15229 17.0204C8.0432 17.0555 7.97047 17.0555 7.89774 17.0555ZM10.3341 10.5868L8.7341 15.5086L13.7886 13.9618L15.2796 9.1102L10.3341 10.5868Z" fill="#8E87AF"/>
<path d="M12.0069 13.364C12.6094 13.364 13.0978 12.8918 13.0978 12.3093C13.0978 11.7268 12.6094 11.2546 12.0069 11.2546C11.4044 11.2546 10.916 11.7268 10.916 12.3093C10.916 12.8918 11.4044 13.364 12.0069 13.364Z" fill="#8E87AF"/>
<path d="M12.443 6.08661C12.443 6.33271 12.2249 6.50849 12.0067 6.50849C11.7521 6.50849 11.5703 6.29755 11.5703 6.08661C11.5703 5.84052 11.7885 5.66474 12.0067 5.66474C12.2249 5.62958 12.443 5.84052 12.443 6.08661Z" fill="#8E87AF"/>
<path d="M12.443 18.5319C12.443 18.778 12.2249 18.9538 12.0067 18.9538C11.7521 18.9538 11.5703 18.7429 11.5703 18.5319C11.5703 18.2858 11.7885 18.11 12.0067 18.11C12.2249 18.0749 12.443 18.2858 12.443 18.5319Z" fill="#8E87AF"/>
<path d="M5.5712 11.8523C5.82575 11.8523 6.00757 12.0632 6.00757 12.2742C6.00757 12.5203 5.78938 12.696 5.5712 12.696C5.31666 12.696 5.13484 12.4851 5.13484 12.2742C5.09848 12.0632 5.31666 11.8523 5.5712 11.8523Z" fill="#8E87AF"/>
<path d="M18.4442 11.8523C18.6988 11.8523 18.8806 12.0632 18.8806 12.2742C18.8806 12.5203 18.6624 12.696 18.4442 12.696C18.1897 12.696 18.0079 12.4851 18.0079 12.2742C17.9715 12.0632 18.1897 11.8523 18.4442 11.8523Z" fill="#8E87AF"/>
<path d="M14.5169 4.39917H9.49876C9.09876 4.39917 8.77148 4.08276 8.77148 3.69604C8.77148 3.30933 9.09876 2.99292 9.49876 2.99292H14.5533C14.9533 2.99292 15.2806 3.30933 15.2806 3.69604C15.2442 4.08276 14.9169 4.39917 14.5169 4.39917Z" fill="#8E87AF"/>
<path d="M11.4616 20.9929C7.49793 20.782 4.11611 18.0046 3.20702 14.2781C2.73429 12.239 2.98884 10.1296 3.97065 8.33667C4.15247 7.98511 4.6252 7.84448 4.98884 8.05542C5.31611 8.26636 5.4252 8.65308 5.24338 8.96948C4.44338 10.5164 4.2252 12.3093 4.66156 14.0671C5.4252 17.1257 8.26156 19.3757 11.5343 19.5867C15.8979 19.8328 19.5343 16.4578 19.5343 12.3093C19.5343 8.30151 16.1525 4.99683 11.9707 4.99683C10.1161 4.99683 8.29793 5.6648 6.91611 6.89526C6.6252 7.14136 6.2252 7.14136 5.93429 6.89526C5.60702 6.61401 5.60702 6.12183 5.93429 5.87573C7.60702 4.39917 9.75247 3.59058 12.007 3.59058C16.9888 3.59058 21.0252 7.49292 21.0252 12.3093C20.9888 17.2664 16.6616 21.2742 11.4616 20.9929Z" fill="#8E87AF"/>
<path d="M7.89774 17.0555C7.67956 17.0555 7.49774 16.9852 7.31592 16.8094C7.09774 16.5985 7.02501 16.3172 7.1341 16.036L9.09774 10.0243C9.20683 9.70785 9.46138 9.46176 9.78865 9.35629L15.8614 7.56332C16.1523 7.49301 16.4432 7.56332 16.6614 7.7391C16.8796 7.95004 16.9523 8.23129 16.8796 8.51254L15.0614 14.4539C14.9523 14.7704 14.6977 15.0516 14.3705 15.1219L8.15229 17.0204C8.0432 17.0555 7.97047 17.0555 7.89774 17.0555ZM10.3341 10.5868L8.7341 15.5086L13.7886 13.9618L15.2796 9.1102L10.3341 10.5868Z" fill="#8E87AF"/>
<path d="M12.0069 13.364C12.6094 13.364 13.0978 12.8918 13.0978 12.3093C13.0978 11.7268 12.6094 11.2546 12.0069 11.2546C11.4044 11.2546 10.916 11.7268 10.916 12.3093C10.916 12.8918 11.4044 13.364 12.0069 13.364Z" fill="#8E87AF"/>
<path d="M12.443 6.08661C12.443 6.3327 12.2249 6.50849 12.0067 6.50849C11.7521 6.50849 11.5703 6.29755 11.5703 6.08661C11.5703 5.84052 11.7885 5.66474 12.0067 5.66474C12.2249 5.62958 12.443 5.84052 12.443 6.08661Z" fill="#8E87AF"/>
<path d="M12.443 18.5319C12.443 18.778 12.2249 18.9538 12.0067 18.9538C11.7521 18.9538 11.5703 18.7429 11.5703 18.5319C11.5703 18.2858 11.7885 18.11 12.0067 18.11C12.2249 18.0749 12.443 18.2858 12.443 18.5319Z" fill="#8E87AF"/>
<path d="M5.5712 11.8523C5.82575 11.8523 6.00757 12.0632 6.00757 12.2742C6.00757 12.5203 5.78938 12.696 5.5712 12.696C5.31666 12.696 5.13484 12.4851 5.13484 12.2742C5.09848 12.0632 5.31666 11.8523 5.5712 11.8523Z" fill="#8E87AF"/>
<path d="M18.4443 11.8523C18.6988 11.8523 18.8806 12.0632 18.8806 12.2742C18.8806 12.5203 18.6624 12.696 18.4443 12.696C18.1897 12.696 18.0079 12.4851 18.0079 12.2742C17.9715 12.0632 18.1897 11.8523 18.4443 11.8523Z" fill="#8E87AF"/>
</svg>
