<svg width="24" height="24" viewBox="0 0 24 24" fill="none" xmlns="http://www.w3.org/2000/svg">
<path d="M16.6574 5.63958C15.5561 4.58231 14.0319 4 12.3658 4C9.82062 4 8.25524 5.04329 7.39025 5.91845C6.3242 6.99699 5.71289 8.42907 5.71289 9.84757C5.71289 11.6286 6.45785 12.9956 7.7054 13.5042C7.78915 13.5385 7.87342 13.5558 7.95604 13.5558C8.21922 13.5558 8.42776 13.3836 8.5 13.1073C8.54211 12.9489 8.6397 12.5579 8.68212 12.3882C8.77294 12.053 8.69956 11.8918 8.5015 11.6584C8.14068 11.2315 7.97266 10.7266 7.97266 10.0696C7.97266 8.11799 9.42584 6.04385 12.1192 6.04385C14.2562 6.04385 15.5838 7.25847 15.5838 9.21366C15.5838 10.4475 15.318 11.5901 14.8353 12.4312C14.4999 13.0156 13.91 13.7123 13.0045 13.7123C12.6129 13.7123 12.2612 13.5514 12.0393 13.271C11.8296 13.0059 11.7605 12.6635 11.8448 12.3066C11.9401 11.9033 12.07 11.4827 12.1957 11.0761C12.4249 10.3334 12.6417 9.63192 12.6417 9.07227C12.6417 8.115 12.0532 7.4718 11.1774 7.4718C10.0644 7.4718 9.19243 8.60225 9.19243 10.0454C9.19243 10.7531 9.38053 11.2825 9.46568 11.4858C9.32547 12.0798 8.49216 15.6117 8.33409 16.2777C8.2427 16.6665 7.69213 19.7372 8.60342 19.9821C9.6273 20.2572 10.5425 17.2665 10.6357 16.9285C10.7112 16.6537 10.9753 15.6144 11.1372 14.9756C11.6315 15.4517 12.4273 15.7735 13.2017 15.7735C14.6615 15.7735 15.9744 15.1166 16.8985 13.9239C17.7947 12.767 18.2883 11.1546 18.2883 9.3838C18.2883 7.99946 17.6938 6.63472 16.6574 5.63958Z" fill="#8E87AF"/>
</svg>
