<svg width="24" height="24" viewBox="0 0 24 24" fill="none" xmlns="http://www.w3.org/2000/svg">
<path fill-rule="evenodd" clip-rule="evenodd" d="M6 5C6.55228 5 7 5.44772 7 6V7.10126C8.27003 5.80502 10.0405 5 12 5C15.5704 5 18.5152 7.67221 18.9459 11.1263C19.0142 11.6743 18.6254 12.174 18.0773 12.2423C17.5293 12.3107 17.0296 11.9218 16.9613 11.3737C16.6538 8.90832 14.549 7 12 7C10.4802 7 9.11754 7.67825 8.19995 8.75H9.75C10.3023 8.75 10.75 9.19772 10.75 9.75C10.75 10.3023 10.3023 10.75 9.75 10.75H6C5.44772 10.75 5 10.3023 5 9.75V6C5 5.44772 5.44772 5 6 5ZM5.92268 11.7577C6.47072 11.6893 6.9704 12.0782 7.03874 12.6263C7.34617 15.0917 9.45099 17 12 17C13.5198 17 14.8825 16.3218 15.8 15.25H14.25C13.6977 15.25 13.25 14.8023 13.25 14.25C13.25 13.6977 13.6977 13.25 14.25 13.25H18C18.5523 13.25 19 13.6977 19 14.25V18C19 18.5523 18.5523 19 18 19C17.4477 19 17 18.5523 17 18V16.8987C15.73 18.195 13.9595 19 12 19C8.42958 19 5.48482 16.3278 5.05411 12.8737C4.98577 12.3257 5.37464 11.826 5.92268 11.7577Z" fill="#8E87AF"/>
</svg>
