<svg width="24" height="24" viewBox="0 0 24 24" fill="none" xmlns="http://www.w3.org/2000/svg">
<path fill-rule="evenodd" clip-rule="evenodd" d="M12.3006 4.04633C12.7169 4.17755 13 4.5636 13 5.00007V10.0001L17 10.0001C17.3729 10.0001 17.7148 10.2075 17.887 10.5383C18.0592 10.869 18.0331 11.2681 17.8192 11.5735L10.8192 21.5735C10.5689 21.9311 10.1156 22.085 9.69936 21.9538C9.28309 21.8226 9 21.4365 9 21.0001L9 16.0001H5C4.62713 16.0001 4.28522 15.7926 4.11302 15.4619C3.94083 15.1312 3.96694 14.7321 4.18077 14.4266L11.1808 4.42661C11.4311 4.06904 11.8844 3.91511 12.3006 4.04633Z" fill="#8E87AF"/>
</svg>
