<svg width="24" height="24" viewBox="0 0 24 24" fill="none" xmlns="http://www.w3.org/2000/svg">
<path d="M8.50205 20.045C8.35005 19.7555 8.35005 19.4246 8.50205 19.135L8.65405 18.8455H4.55005L7.28605 13.882L8.35005 15.7847C8.65405 16.3224 9.33805 16.3224 9.64205 15.826C9.79405 15.5778 9.79405 15.2056 9.64205 14.9574L8.00805 12.0207C7.85605 11.7311 7.59005 11.5657 7.28605 11.5657C6.98205 11.5657 6.71605 11.7311 6.56405 12.0207L2.61205 19.135C2.46005 19.4246 2.46005 19.7555 2.61205 20.045C2.76405 20.3345 3.03005 20.5 3.33405 20.5H9.22405C8.92005 20.5 8.65405 20.2932 8.50205 20.045Z" fill="#8E87AF"/>
<path d="M21.3838 19.1351L15.6838 8.83585C15.5318 8.54631 15.2658 8.38086 14.9618 8.38086C14.6578 8.38086 14.3918 8.54631 14.2398 8.83585L8.69178 18.8456L8.53978 19.1351C8.38778 19.4247 8.38778 19.7556 8.53978 20.0451C8.69178 20.3346 8.95778 20.5001 9.26178 20.5001H12.7578H20.6998C21.0038 20.5001 21.2698 20.3346 21.4218 20.0451C21.5358 19.7556 21.5358 19.3833 21.3838 19.1351ZM14.9618 10.7385L19.4458 18.8456H10.4398L14.9618 10.7385Z" fill="#8E87AF"/>
<path d="M8.5778 9.41484C10.0598 9.41484 11.2758 8.09124 11.2758 6.4781C11.2758 4.8236 10.0598 3.5 8.5778 3.5C7.0578 3.5 5.8418 4.8236 5.8418 6.43674C5.8418 8.09124 7.0578 9.41484 8.5778 9.41484ZM8.5778 5.1545C9.2238 5.1545 9.7558 5.73358 9.7558 6.43674C9.7558 7.1399 9.2238 7.71898 8.5778 7.71898C7.9318 7.71898 7.3998 7.1399 7.3998 6.43674C7.3998 5.73358 7.8938 5.1545 8.5778 5.1545Z" fill="#8E87AF"/>
<path d="M8.50205 20.045C8.35005 19.7555 8.35005 19.4246 8.50205 19.135L8.65405 18.8455H4.55005L7.28605 13.882L8.35005 15.7847C8.65405 16.3224 9.33805 16.3224 9.64205 15.826C9.79405 15.5778 9.79405 15.2056 9.64205 14.9574L8.00805 12.0207C7.85605 11.7311 7.59005 11.5657 7.28605 11.5657C6.98205 11.5657 6.71605 11.7311 6.56405 12.0207L2.61205 19.135C2.46005 19.4246 2.46005 19.7555 2.61205 20.045C2.76405 20.3345 3.03005 20.5 3.33405 20.5H9.22405C8.92005 20.5 8.65405 20.2932 8.50205 20.045Z" fill="#8E87AF"/>
<path d="M21.3838 19.1351L15.6838 8.83585C15.5318 8.54631 15.2658 8.38086 14.9618 8.38086C14.6578 8.38086 14.3918 8.54631 14.2398 8.83585L8.69178 18.8456L8.53978 19.1351C8.38778 19.4247 8.38778 19.7556 8.53978 20.0451C8.69178 20.3346 8.95778 20.5001 9.26178 20.5001H12.7578H20.6998C21.0038 20.5001 21.2698 20.3346 21.4218 20.0451C21.5358 19.7556 21.5358 19.3833 21.3838 19.1351ZM14.9618 10.7385L19.4458 18.8456H10.4398L14.9618 10.7385Z" fill="#8E87AF"/>
<path d="M8.5778 9.41484C10.0598 9.41484 11.2758 8.09124 11.2758 6.4781C11.2758 4.8236 10.0598 3.5 8.5778 3.5C7.0578 3.5 5.8418 4.8236 5.8418 6.43674C5.8418 8.09124 7.0578 9.41484 8.5778 9.41484ZM8.5778 5.1545C9.2238 5.1545 9.7558 5.73358 9.7558 6.43674C9.7558 7.1399 9.2238 7.71898 8.5778 7.71898C7.9318 7.71898 7.3998 7.1399 7.3998 6.43674C7.3998 5.73358 7.8938 5.1545 8.5778 5.1545Z" fill="#8E87AF"/>
</svg>
