<svg width="24" height="24" viewBox="0 0 24 24" fill="none" xmlns="http://www.w3.org/2000/svg">
<path d="M18.9157 7.56709C18.8393 7.49298 18.7298 7.46854 18.63 7.50322L18.1579 7.66612C18.436 7.32961 18.6412 6.97815 18.7492 6.64497C18.7806 6.54785 18.7521 6.44027 18.6768 6.37115C18.601 6.30156 18.4911 6.28185 18.3956 6.32175C17.7335 6.59938 17.1476 6.84113 16.6817 6.98576C16.6644 6.99123 16.6466 6.98885 16.6288 6.97886C16.2573 6.77083 15.3276 6.29302 14.6672 6.30063C12.997 6.33125 11.6379 7.75851 11.6379 9.48236V9.57664C9.17856 9.1005 7.81947 8.39304 6.34782 6.8492L6.11795 6.60792L5.965 6.90404C5.16614 8.44933 5.73253 9.83431 6.66606 10.7671C6.25237 10.7037 5.95195 10.5705 5.69903 10.3499C5.60191 10.2658 5.46415 10.2554 5.35586 10.3242C5.24925 10.3922 5.20056 10.5192 5.23499 10.6403C5.54918 11.752 6.39056 12.6648 7.27875 13.2103C6.84962 13.2099 6.4965 13.1621 6.14145 12.9339C6.03815 12.8674 5.90373 12.8743 5.80732 12.9505C5.71162 13.0265 5.67481 13.1547 5.71564 13.2699C6.14857 14.4858 6.95813 15.1253 8.29965 15.2847C7.61001 15.6879 6.7152 16.0066 5.3181 16.0358C5.18179 16.0387 5.06114 16.1273 5.01746 16.256C4.97378 16.3842 5.01368 16.522 5.11888 16.6065C5.96787 17.2909 7.8722 17.6996 10.213 17.6996C14.4034 17.6996 17.8124 13.9709 17.8124 9.38784V9.30733C18.3546 9.04823 18.7682 8.53696 18.9869 7.84945C19.0188 7.74923 18.9915 7.64095 18.9157 7.56709Z" fill="#8E87AF"/>
</svg>
