<svg width="24" height="24" viewBox="0 0 24 24" fill="none" xmlns="http://www.w3.org/2000/svg">
<path d="M4.97717 13.4554C4.63562 13.4554 4.36996 13.1362 4.40791 12.7771C4.67357 10.6225 6.30545 8.90674 8.39273 8.58754C8.73429 8.54764 9.03789 8.82694 9.03789 9.18605C9.03789 9.50525 8.81019 9.74465 8.54454 9.78455C7.82347 9.90425 7.14036 10.2634 6.60905 10.7821C6.03979 11.3407 5.66028 12.0988 5.54643 12.9367C5.47053 13.216 5.24283 13.4554 4.97717 13.4554Z" fill="#8E87AF"/>
<path d="M18.0709 12.059L17.8432 11.8196C16.8565 10.7822 16.8565 9.06646 17.8432 7.98915L18.1088 7.70985C18.5263 7.27095 18.6022 6.63255 18.2986 6.11384C17.8811 5.43554 17.0083 5.39564 16.5149 5.91434L14.162 8.38816L13.0234 7.31085L15.3384 4.87693C16.2872 3.87943 17.8432 3.67993 18.9437 4.55773C20.2341 5.63504 20.3479 7.63005 19.2094 8.78716L18.9058 9.10636C18.716 9.30586 18.6022 9.58517 18.6022 9.90437C18.6022 10.1837 18.716 10.463 18.9058 10.7024L19.1335 10.9418C19.4371 11.261 19.4371 11.7398 19.1335 12.059C18.8299 12.3383 18.3365 12.3383 18.0709 12.059Z" fill="#8E87AF"/>
<path d="M8.73476 19.999C7.10288 19.999 5.47101 19.4005 4.21863 18.1636C2.5488 16.5676 1.75184 14.2933 2.0934 11.8594C2.20725 10.9816 2.51085 10.1038 2.92831 9.30576C4.63609 6.35314 8.0137 5.19604 10.9359 6.23344C11.3913 6.39304 11.619 6.91175 11.3913 7.35065C11.2016 7.70975 10.822 7.86935 10.4425 7.74965C8.0896 6.91175 5.35715 7.90925 4.10478 10.4629C3.87708 10.9018 3.72527 11.4205 3.64937 11.8993C3.30782 14.014 4.02888 16.009 5.58486 17.2858C7.14083 18.5626 9.34197 18.802 11.0877 17.8444C13.137 16.7272 14.2376 14.4529 13.934 12.1387C13.8581 11.6998 13.7443 11.221 13.5924 10.822C13.3647 10.2634 13.6304 10.024 14.1997 9.46536C14.2376 9.42546 14.2756 9.38556 14.3135 9.34566L12.1883 7.11125C11.8847 6.79205 11.8847 6.31324 12.1883 5.99404C12.4919 5.67484 12.9473 5.67484 13.2509 5.99404L15.8695 8.74716C16.0213 8.90676 16.1351 9.14616 16.0972 9.38556C16.0972 9.62496 15.9833 9.86437 15.8315 10.024C15.5279 10.3033 15.3002 10.5427 15.1484 10.7023C15.2623 11.1013 15.3761 11.5003 15.4141 11.8993C15.7177 14.2135 14.9587 16.5277 13.3268 18.1237C12.0365 19.3606 10.4046 19.999 8.73476 19.999Z" fill="#8E87AF"/>
<path d="M16.8178 14.7722C17.0834 14.9717 17.425 14.8919 17.6147 14.6126L17.9563 14.054C18.146 13.7746 18.0701 13.4155 17.8045 13.216C17.5388 13.0165 17.1973 13.0963 17.0075 13.3756L16.666 13.9342C16.4762 14.2136 16.5521 14.5727 16.8178 14.7722Z" fill="#8E87AF"/>
<path d="M18.9815 14.1339L19.323 14.9319C19.4748 15.2112 19.7784 15.3708 20.082 15.2112C20.3856 15.0516 20.4995 14.7324 20.3477 14.4132L20.0061 13.6152C19.8543 13.3359 19.5507 13.1763 19.2471 13.3359C18.9815 13.4955 18.8676 13.8546 18.9815 14.1339Z" fill="#8E87AF"/>
<path d="M20.2333 12.1388C20.1954 12.458 20.3851 12.7772 20.6887 12.8171L21.3339 12.9368C21.6375 12.9767 21.9411 12.7772 21.9791 12.458C22.017 12.1388 21.8273 11.8196 21.5237 11.7797L20.8785 11.66C20.5749 11.5802 20.3092 11.8196 20.2333 12.1388Z" fill="#8E87AF"/>
</svg>
