<svg width="20" height="20" viewBox="0 0 20 20" fill="none" xmlns="http://www.w3.org/2000/svg">
<path fill-rule="evenodd" clip-rule="evenodd" d="M15.8166 4.18342C14.9054 3.27219 13.428 3.27219 12.5168 4.18342L11.6004 5.09976C11.2099 5.49028 10.5767 5.49028 10.1862 5.09976C9.79567 4.70923 9.79567 4.07607 10.1862 3.68555L11.1025 2.7692C12.7948 1.07693 15.5385 1.07693 17.2308 2.7692C18.9231 4.46148 18.9231 7.20519 17.2308 8.89746L13.8975 12.2308C12.2052 13.9231 9.46148 13.9231 7.7692 12.2308C7.37868 11.8403 7.37868 11.2071 7.7692 10.8166C8.15973 10.4261 8.79289 10.4261 9.18342 10.8166C10.0946 11.7278 11.572 11.7278 12.4832 10.8166L15.8166 7.48325C16.7278 6.57203 16.7278 5.09464 15.8166 4.18342ZM10.8166 9.18342C9.90536 8.27219 8.42797 8.27219 7.51675 9.18342L4.18342 12.5168C3.27219 13.428 3.27219 14.9054 4.18342 15.8166C5.09464 16.7278 6.57203 16.7278 7.48325 15.8166L8.40122 14.8986C8.79174 14.5081 9.42491 14.5081 9.81543 14.8986C10.206 15.2891 10.206 15.9223 9.81543 16.3128L8.89746 17.2308C7.20519 18.9231 4.46148 18.9231 2.7692 17.2308C1.07693 15.5385 1.07693 12.7948 2.7692 11.1025L6.10254 7.7692C7.79481 6.07693 10.5385 6.07693 12.2308 7.7692C12.6213 8.15973 12.6213 8.79289 12.2308 9.18342C11.8403 9.57394 11.2071 9.57394 10.8166 9.18342Z" fill="#8E87AF"/>
</svg>
