<svg width="24" height="24" viewBox="0 0 24 24" fill="none" xmlns="http://www.w3.org/2000/svg">
<g clip-path="url(#clip0_1410_10955)">
<path d="M17.9966 18.0001V17.9996H17.9996V13.5986C17.9996 11.4456 17.5361 9.78711 15.0191 9.78711C13.8091 9.78711 12.9971 10.4511 12.6656 11.0806H12.6306V9.98811H10.2441V17.9996H12.7291V14.0326C12.7291 12.9881 12.9271 11.9781 14.2206 11.9781C15.4951 11.9781 15.5141 13.1701 15.5141 14.0996V18.0001H17.9966Z" fill="#8E87AF"/>
<path d="M6.19727 9.98853H8.68527V18H6.19727V9.98853Z" fill="#8E87AF"/>
<path d="M7.441 6C6.6455 6 6 6.6455 6 7.441C6 8.2365 6.6455 8.8955 7.441 8.8955C8.2365 8.8955 8.882 8.2365 8.882 7.441C8.8815 6.6455 8.236 6 7.441 6V6Z" fill="#8E87AF"/>
</g>
<defs>
<clipPath id="clip0_1410_10955">
<rect width="12" height="12" fill="white" transform="translate(6 6)"/>
</clipPath>
</defs>
</svg>
