<svg width="24" height="24" viewBox="0 0 24 24" fill="none" xmlns="http://www.w3.org/2000/svg">
<path d="M5.00002 12.0081C4.99407 10.5122 6.20193 9.29469 7.69787 9.28873C8.38681 9.286 9.05092 9.54589 9.55499 10.0155L13.5914 8.19306C13.5634 8.04214 13.548 7.88917 13.5454 7.73569C13.5406 6.22945 14.7578 5.00457 16.264 4.99979C17.7703 4.99501 18.9951 6.21219 18.9999 7.71843C19.0047 9.22466 17.7875 10.4495 16.2813 10.4543C15.3814 10.4572 14.538 10.0159 14.0272 9.275L10.2349 10.9873C10.5043 11.6378 10.5053 12.3684 10.2378 13.0196L14.0249 14.7406C14.8777 13.5073 16.5688 13.1988 17.8022 14.0515C19.0356 14.9043 19.3441 16.5954 18.4913 17.8288C17.6385 19.0622 15.9474 19.3707 14.714 18.5179C13.9795 18.01 13.5417 17.1735 13.5431 16.2805C13.5455 16.1268 13.5611 15.9736 13.5897 15.8226L9.56373 13.9931C8.47297 15.0174 6.75844 14.9634 5.73421 13.8727C5.26018 13.3678 4.99745 12.7006 5.00002 12.0081Z" fill="#8E87AF"/>
</svg>
