<svg width="24" height="24" viewBox="0 0 24 24" fill="none" xmlns="http://www.w3.org/2000/svg">
<path fill-rule="evenodd" clip-rule="evenodd" d="M11.3615 2.35298C11.8621 1.63784 12.7687 1.32998 13.6013 1.59243C14.4338 1.85487 15 2.62696 15 3.4999V7.4999L18 7.4999C18.7458 7.4999 19.4296 7.91482 19.774 8.57628L18.887 9.03809L19.774 8.57628C20.1184 9.23775 20.0661 10.0359 19.6385 10.6468L12.6385 20.6468C12.1379 21.362 11.2313 21.6698 10.3987 21.4074C9.56617 21.1449 9.00001 20.3728 9.00001 19.4999L9.00001 15.4999H6.00001C5.25426 15.4999 4.57044 15.085 4.22605 14.4235C3.88165 13.7621 3.93388 12.9639 4.36154 12.353L11.3615 2.35298L12.1627 2.91381L11.3615 2.35298ZM13 3.4999L6.00001 13.4999H10C10.2652 13.4999 10.5196 13.6053 10.7071 13.7928C10.8947 13.9803 11 14.2347 11 14.4999L11 19.4999L18 9.4999L14 9.4999C13.4477 9.4999 13 9.05218 13 8.4999V3.4999Z" fill="#8E87AF"/>
</svg>
